<svg width="50" height="50" viewBox="0 0 50 50" fill="none" xmlns="http://www.w3.org/2000/svg">
<path d="M0 25C0 11.1929 11.1929 0 25 0C38.8071 0 50 11.1929 50 25C50 38.8071 38.8071 50 25 50C11.1929 50 0 38.8071 0 25Z" fill="#FFBB00"/>
<path d="M21 30C21 32.2091 22.7909 34 25 34C27.2091 34 29 32.2091 29 30V19H36V29C36 35.0751 31.0751 40 25 40C18.9249 40 14 35.0751 14 29V19H21V30Z" fill="#202020"/>
<path d="M20.4854 9C22.4139 9.00007 23.9775 10.5841 23.9775 12.5127C23.9775 14.4412 22.4139 16.0253 20.4854 16.0254C18.5568 16.0254 16.9932 14.4412 16.9932 12.5127C16.9932 10.5841 18.5567 9 20.4854 9Z" fill="#202020"/>
<path d="M30.4629 9C32.3913 9.0002 33.9541 10.5842 33.9541 12.5127C33.954 14.4411 32.3913 16.0252 30.4629 16.0254C28.5343 16.0254 26.9708 14.4412 26.9707 12.5127C26.9707 10.5841 28.5343 9 30.4629 9Z" fill="#202020"/>
</svg>
